<svg xmlns="http://www.w3.org/2000/svg" width="128" height="128" viewBox="0 0 128 128">
  <rect width="128" height="128" fill="#3a7d3a"/>
  <rect x="0" y="0" width="64" height="128" fill="#429a42" opacity="0.35"/>
  <rect x="40" y="20" width="48" height="40" fill="#2d6b2d" opacity="0.25" rx="8"/>
  <rect x="8" y="70" width="56" height="36" fill="#56ad56" opacity="0.2" rx="6"/>
  <g stroke-linecap="round" fill="none">
    <g stroke="#1f5c1f" stroke-width="1.2" opacity="0.55">
      <line x1="6" y1="128" x2="9" y2="108"/><line x1="14" y1="128" x2="16" y2="112"/>
      <line x1="22" y1="128" x2="25" y2="105"/><line x1="30" y1="128" x2="32" y2="110"/>
      <line x1="38" y1="128" x2="41" y2="104"/><line x1="46" y1="128" x2="48" y2="111"/>
      <line x1="54" y1="128" x2="57" y2="106"/><line x1="62" y1="128" x2="64" y2="113"/>
      <line x1="70" y1="128" x2="73" y2="107"/><line x1="78" y1="128" x2="80" y2="114"/>
      <line x1="86" y1="128" x2="89" y2="105"/><line x1="94" y1="128" x2="96" y2="112"/>
      <line x1="102" y1="128" x2="105" y2="108"/><line x1="110" y1="128" x2="112" y2="115"/>
      <line x1="118" y1="128" x2="121" y2="106"/>
    </g>
    <g stroke="#6fcf6f" stroke-width="1" opacity="0.45">
      <line x1="10" y1="128" x2="11" y2="118"/><line x1="26" y1="128" x2="28" y2="116"/>
      <line x1="42" y1="128" x2="43" y2="119"/><line x1="58" y1="128" x2="60" y2="117"/>
      <line x1="74" y1="128" x2="75" y2="118"/><line x1="90" y1="128" x2="92" y2="116"/>
      <line x1="106" y1="128" x2="107" y2="119"/>
    </g>
    <g stroke="#81e081" stroke-width="0.8" opacity="0.35">
      <line x1="4" y1="128" x2="5" y2="122"/><line x1="20" y1="128" x2="21" y2="121"/>
      <line x1="36" y1="128" x2="37" y2="123"/><line x1="52" y1="128" x2="53" y2="122"/>
      <line x1="68" y1="128" x2="69" y2="121"/><line x1="84" y1="128" x2="85" y2="123"/>
      <line x1="100" y1="128" x2="101" y2="122"/><line x1="116" y1="128" x2="117" y2="121"/>
    </g>
  </g>
</svg>
